<svg viewBox="0 0 16 16" xmlns="http://www.w3.org/2000/svg"><path d="m0 8c0-2.86 1.52-5.5 4-6.93s5.52-1.43 8 0 4 4.07 4 6.93-1.52 5.5-4 6.93-5.52 1.43-8 0-4-4.07-4-6.93zm14.5 0c0-2.32-1.24-4.47-3.25-5.63s-4.49-1.16-6.5 0-3.25 3.31-3.25 5.63 1.24 4.47 3.25 5.63 4.49 1.16 6.5 0 3.25-3.31 3.25-5.63zm-9.19-2.83c.25-.7.91-1.17 1.65-1.17h1.82c1.09 0 1.97.88 1.97 1.97 0 .71-.38 1.36-.99 1.71l-1.01.58c0 .41-.34.74-.75.74s-.75-.33-.75-.75v-.42c0-.27.14-.52.38-.65l1.38-.79c.15-.08.24-.24.24-.41 0-.26-.21-.47-.47-.47h-1.82c-.11 0-.2.07-.23.17v.04c-.15.39-.58.59-.97.46-.39-.14-.59-.57-.46-.96v-.04s0 0 0 0zm1.69 5.83c0-.55.45-1 1-1s1 .45 1 1-.45 1-1 1-1-.45-1-1z" fill="#ff9d26"/></svg>